<svg width="1003.89" height="418.88" xmlns="http://www.w3.org/2000/svg">

 <metadata>image/svg+xmlOpencliparthome2008-10-08T17:41:00black home iconhttp://openclipart.org/detail/19535/home-by-dynnamittdynnamittclip artcliparthomehouseiconimagemediapngpublic domainsilhouettesvg</metadata>
 <g>
  <title>Layer 1</title>
  <g id="layer1">
   <path fill="#008080" d="m485.25242,206.16496zl-79.28487,-67.96833l-79.32383,67.99662l0,97.16092c0,2.51246 2.09388,4.52525 4.68444,4.52525l49.57618,0l0,-42.60336c0,-2.50774 2.07927,-4.53468 4.6747,-4.53468l40.7332,0c2.59543,0 4.6747,2.02694 4.6747,4.53468l0,42.60336l49.59078,0c2.59056,0 4.6747,-2.01279 4.6747,-4.52525l0,-97.1892zm-158.6087,0.02828z" id="rect2391"/>
   <path fill="#008080" d="m405.50982,101l-112.50933,96.43971l11.85134,12.93939l101.11475,-86.67742l101.09527,86.67742l11.82797,-12.93939l-112.48499,-96.43971l-0.43825,0.49024l-0.45773,-0.49024l0.00097,0z" id="path2399"/>
   <path fill="#008080" d="m326.64372,114.88215l28.52054,0l-0.24834,16.35218l-28.2722,24.7239l0,-41.07608z" id="rect2404"/>
  </g>
  <text font-weight="bold" x="5.45001" xml:space="preserve" text-anchor="start" font-family="sans-serif" font-size="200" id="svg_2" y="304.95" opacity="undefined" stroke-opacity="null" stroke-dasharray="null" stroke-width="0" stroke="#000" fill="#008080">Cle</text>
  <text font-weight="bold" x="508.45001" xml:space="preserve" text-anchor="start" font-family="sans-serif" font-size="200" id="svg_3" y="307.95" opacity="undefined" stroke-opacity="null" stroke-dasharray="null" stroke-width="0" stroke="#000" fill="#008080">rBnB</text>
  <line stroke-linecap="null" stroke-linejoin="null" id="svg_7" y2="532.95" x2="710.45001" y1="530.95" x1="710.45001" opacity="undefined" fill-opacity="null" stroke-opacity="null" stroke-dasharray="null" stroke="#000" fill="none"/>
 </g>
</svg>